<svg xmlns="http://www.w3.org/2000/svg" width="805" height="600"><rect width="805" height="600" x="0" y="0" fill="#e7e7e7" id="backgorund"/><g id="viz"><g transform="translate(0,0)"><g transform="translate(50,20)"><g class="bars"><rect id="undefined - 13:24:59" x="682.9998882931188" y="420" height="140" width="61.001452189454874" fill="#1f77b4"/><rect id="undefined - 13:24:56" x="620.9997765862377" y="420" height="140" width="61.001452189454874" fill="#1f77b4"/><rect id="undefined - 13:24:55" x="558.9996648793565" y="420" height="140" width="61.001452189454874" fill="#1f77b4"/><rect id="undefined - 13:24:53" x="496.99955317247543" y="280" height="280" width="61.001452189454874" fill="#1f77b4"/><rect id="undefined - 13:24:52" x="434.99944146559426" y="0" height="560" width="61.001452189454874" fill="#1f77b4"/><rect id="undefined - 13:24:49" x="372.99932975871315" y="420" height="140" width="61.001452189454874" fill="#1f77b4"/><rect id="undefined - 13:24:48" x="310.999218051832" y="420" height="140" width="61.001452189454874" fill="#1f77b4"/><rect id="undefined - 13:24:44" x="248.99910634495083" y="420" height="140" width="61.001452189454874" fill="#1f77b4"/><rect id="undefined - 13:24:43" x="186.9989946380697" y="420" height="140" width="61.001452189454874" fill="#1f77b4"/><rect id="undefined - 13:24:39" x="124.99888293118853" y="420" height="140" width="61.001452189454874" fill="#1f77b4"/><rect id="undefined - 13:24:38" x="62.99877122430738" y="420" height="140" width="61.001452189454874" fill="#1f77b4"/><rect id="undefined - 13:24:36" x="0.9986595174262334" y="420" height="140" width="61.001452189454874" fill="#1f77b4"/></g><g id="xAxis" transform="translate(0,560)" fill="none" font-size="10" font-family="sans-serif" text-anchor="middle"><path class="domain" stroke="currentColor" d="M0,0H745"/><g class="tick" opacity="1" transform="translate(31.49938561215367,0)"><line stroke="currentColor" y2="6"/><text fill="currentColor" y="9" dy="0.71em">13:24:36</text></g><g class="tick" opacity="1" transform="translate(93.49949731903482,0)"><line stroke="currentColor" y2="6"/><text fill="currentColor" y="9" dy="0.71em">13:24:38</text></g><g class="tick" opacity="1" transform="translate(155.49960902591596,0)"><line stroke="currentColor" y2="6"/><text fill="currentColor" y="9" dy="0.71em">13:24:39</text></g><g class="tick" opacity="1" transform="translate(217.49972073279713,0)"><line stroke="currentColor" y2="6"/><text fill="currentColor" y="9" dy="0.71em">13:24:43</text></g><g class="tick" opacity="1" transform="translate(279.49983243967824,0)"><line stroke="currentColor" y2="6"/><text fill="currentColor" y="9" dy="0.71em">13:24:44</text></g><g class="tick" opacity="1" transform="translate(341.4999441465594,0)"><line stroke="currentColor" y2="6"/><text fill="currentColor" y="9" dy="0.71em">13:24:48</text></g><g class="tick" opacity="1" transform="translate(403.5000558534406,0)"><line stroke="currentColor" y2="6"/><text fill="currentColor" y="9" dy="0.71em">13:24:49</text></g><g class="tick" opacity="1" transform="translate(465.5001675603217,0)"><line stroke="currentColor" y2="6"/><text fill="currentColor" y="9" dy="0.71em">13:24:52</text></g><g class="tick" opacity="1" transform="translate(527.5002792672028,0)"><line stroke="currentColor" y2="6"/><text fill="currentColor" y="9" dy="0.71em">13:24:53</text></g><g class="tick" opacity="1" transform="translate(589.5003909740839,0)"><line stroke="currentColor" y2="6"/><text fill="currentColor" y="9" dy="0.71em">13:24:55</text></g><g class="tick" opacity="1" transform="translate(651.500502680965,0)"><line stroke="currentColor" y2="6"/><text fill="currentColor" y="9" dy="0.71em">13:24:56</text></g><g class="tick" opacity="1" transform="translate(713.5006143878462,0)"><line stroke="currentColor" y2="6"/><text fill="currentColor" y="9" dy="0.71em">13:24:59</text></g><text x="745" y="-4" text-anchor="end" style="font-family: Arial, sans-serif; font-size: 12px; fill: rgb(123, 123, 123); font-weight: bold;">13:30:00</text></g><g id="yAxis" fill="none" font-size="10" font-family="sans-serif" text-anchor="end"><path class="domain" stroke="currentColor" d="M-6,560H0V0H-6"/><g class="tick" opacity="1" transform="translate(0,560)"><line stroke="currentColor" x2="-6"/><text fill="currentColor" x="-9" dy="0.32em">0.0</text></g><g class="tick" opacity="1" transform="translate(0,490)"><line stroke="currentColor" x2="-6"/><text fill="currentColor" x="-9" dy="0.32em">0.5</text></g><g class="tick" opacity="1" transform="translate(0,420)"><line stroke="currentColor" x2="-6"/><text fill="currentColor" x="-9" dy="0.32em">1.0</text></g><g class="tick" opacity="1" transform="translate(0,350)"><line stroke="currentColor" x2="-6"/><text fill="currentColor" x="-9" dy="0.32em">1.5</text></g><g class="tick" opacity="1" transform="translate(0,280)"><line stroke="currentColor" x2="-6"/><text fill="currentColor" x="-9" dy="0.32em">2.0</text></g><g class="tick" opacity="1" transform="translate(0,210)"><line stroke="currentColor" x2="-6"/><text fill="currentColor" x="-9" dy="0.32em">2.5</text></g><g class="tick" opacity="1" transform="translate(0,140)"><line stroke="currentColor" x2="-6"/><text fill="currentColor" x="-9" dy="0.32em">3.0</text></g><g class="tick" opacity="1" transform="translate(0,70)"><line stroke="currentColor" x2="-6"/><text fill="currentColor" x="-9" dy="0.32em">3.5</text></g><g class="tick" opacity="1" transform="translate(0,0)"><line stroke="currentColor" x2="-6"/><text fill="currentColor" x="-9" dy="0.32em">4.0</text></g><text x="4" text-anchor="start" dominant-baseline="hanging" style="font-family: Arial, sans-serif; font-size: 12px; fill: rgb(123, 123, 123); font-weight: bold;"/></g></g><text y="4" x="4" style="font-family: Arial, sans-serif; font-size: 12px; fill: black; font-weight: bold; dominant-baseline: hanging;"/></g></g></svg>