<svg xmlns="http://www.w3.org/2000/svg" width="805" height="600"><rect width="805" height="600" x="0" y="0" fill="#afc5e0" id="backgorund"/><g id="viz"><clipPath id="serieClipPath"><rect x="-50" y="-10" width="805" height="600"/></clipPath><g transform="translate(0,0)"><g transform="translate(50,10)" clip-path="url(#serieClipPath)"><g id="axis"><g transform="translate(0,570)" fill="none" font-size="10" font-family="sans-serif" text-anchor="middle"><path class="domain" stroke="currentColor" d="M0,6V0H740V6"/><g class="tick" opacity="1" transform="translate(0,0)"><line stroke="currentColor" y2="6"/><text fill="currentColor" y="9" dy="0.71em">Mon 17</text></g><g class="tick" opacity="1" transform="translate(59.2,0)"><line stroke="currentColor" y2="6"/><text fill="currentColor" y="9" dy="0.71em">Wed 19</text></g><g class="tick" opacity="1" transform="translate(118.4,0)"><line stroke="currentColor" y2="6"/><text fill="currentColor" y="9" dy="0.71em">Fri 21</text></g><g class="tick" opacity="1" transform="translate(177.6,0)"><line stroke="currentColor" y2="6"/><text fill="currentColor" y="9" dy="0.71em">Oct 23</text></g><g class="tick" opacity="1" transform="translate(236.8,0)"><line stroke="currentColor" y2="6"/><text fill="currentColor" y="9" dy="0.71em">Tue 25</text></g><g class="tick" opacity="1" transform="translate(296,0)"><line stroke="currentColor" y2="6"/><text fill="currentColor" y="9" dy="0.71em">Thu 27</text></g><g class="tick" opacity="1" transform="translate(355.2,0)"><line stroke="currentColor" y2="6"/><text fill="currentColor" y="9" dy="0.71em">Sat 29</text></g><g class="tick" opacity="1" transform="translate(414.40000000000003,0)"><line stroke="currentColor" y2="6"/><text fill="currentColor" y="9" dy="0.71em">Mon 31</text></g><g class="tick" opacity="1" transform="translate(444,0)"><line stroke="currentColor" y2="6"/><text fill="currentColor" y="9" dy="0.71em">November</text></g><g class="tick" opacity="1" transform="translate(503.20000000000005,0)"><line stroke="currentColor" y2="6"/><text fill="currentColor" y="9" dy="0.71em">Thu 03</text></g><g class="tick" opacity="1" transform="translate(562.4,0)"><line stroke="currentColor" y2="6"/><text fill="currentColor" y="9" dy="0.71em">Sat 05</text></g><g class="tick" opacity="1" transform="translate(621.6,0)"><line stroke="currentColor" y2="6"/><text fill="currentColor" y="9" dy="0.71em">Mon 07</text></g><g class="tick" opacity="1" transform="translate(680.8000000000001,0)"><line stroke="currentColor" y2="6"/><text fill="currentColor" y="9" dy="0.71em">Wed 09</text></g><g class="tick" opacity="1" transform="translate(740,0)"><line stroke="currentColor" y2="6"/><text fill="currentColor" y="9" dy="0.71em">Fri 11</text></g><text x="740" dy="-5" text-anchor="end" style="font-family: Arial, sans-serif; font-size: 12px; fill: rgb(123, 123, 123); font-weight: bold;">2022-11-11</text></g><g transform="translate(0,0)" fill="none" font-size="10" font-family="sans-serif" text-anchor="end"><path class="domain" stroke="currentColor" d="M0,570V0"/><g class="tick" opacity="1" transform="translate(0,570)"><line stroke="currentColor" x2="-6"/><text fill="currentColor" x="-9" dy="0.32em">74</text></g><g class="tick" opacity="1" transform="translate(0,526.1538461538462)"><line stroke="currentColor" x2="-6"/><text fill="currentColor" x="-9" dy="0.32em">75</text></g><g class="tick" opacity="1" transform="translate(0,482.3076923076923)"><line stroke="currentColor" x2="-6"/><text fill="currentColor" x="-9" dy="0.32em">76</text></g><g class="tick" opacity="1" transform="translate(0,438.4615384615384)"><line stroke="currentColor" x2="-6"/><text fill="currentColor" x="-9" dy="0.32em">77</text></g><g class="tick" opacity="1" transform="translate(0,394.6153846153846)"><line stroke="currentColor" x2="-6"/><text fill="currentColor" x="-9" dy="0.32em">78</text></g><g class="tick" opacity="1" transform="translate(0,350.7692307692308)"><line stroke="currentColor" x2="-6"/><text fill="currentColor" x="-9" dy="0.32em">79</text></g><g class="tick" opacity="1" transform="translate(0,306.9230769230769)"><line stroke="currentColor" x2="-6"/><text fill="currentColor" x="-9" dy="0.32em">80</text></g><g class="tick" opacity="1" transform="translate(0,263.0769230769231)"><line stroke="currentColor" x2="-6"/><text fill="currentColor" x="-9" dy="0.32em">81</text></g><g class="tick" opacity="1" transform="translate(0,219.2307692307692)"><line stroke="currentColor" x2="-6"/><text fill="currentColor" x="-9" dy="0.32em">82</text></g><g class="tick" opacity="1" transform="translate(0,175.3846153846154)"><line stroke="currentColor" x2="-6"/><text fill="currentColor" x="-9" dy="0.32em">83</text></g><g class="tick" opacity="1" transform="translate(0,131.53846153846152)"><line stroke="currentColor" x2="-6"/><text fill="currentColor" x="-9" dy="0.32em">84</text></g><g class="tick" opacity="1" transform="translate(0,87.6923076923077)"><line stroke="currentColor" x2="-6"/><text fill="currentColor" x="-9" dy="0.32em">85</text></g><g class="tick" opacity="1" transform="translate(0,43.84615384615382)"><line stroke="currentColor" x2="-6"/><text fill="currentColor" x="-9" dy="0.32em">86</text></g><g class="tick" opacity="1" transform="translate(0,0)"><line stroke="currentColor" x2="-6"/><text fill="currentColor" x="-9" dy="0.32em">87</text></g><text x="4" text-anchor="start" dominant-baseline="hanging" style="font-family: Arial, sans-serif; font-size: 12px; fill: rgb(123, 123, 123); font-weight: bold;">90.40   </text></g></g><g id="viz"><g><path d="M0,473.5384615384614C14.8,473.5384615384614,14.8,477.9230769230772,29.6,477.9230769230772C44.400000000000006,477.9230769230772,44.400000000000006,530.5384615384613,59.2,530.5384615384613C74,530.5384615384613,74,482.3076923076923,88.8,482.3076923076923C103.6,482.3076923076923,103.6,469.15384615384625,118.4,469.15384615384625C162.8,469.15384615384625,162.8,407.76923076923066,207.20000000000002,407.76923076923066C222,407.76923076923066,222,425.30769230769243,236.8,425.30769230769243C251.6,425.30769230769243,251.6,442.8461538461536,266.4,442.8461538461536C281.2,442.8461538461536,281.2,363.9230769230768,296,363.9230769230768C310.8,363.9230769230768,310.8,276.2307692307691,325.6,276.2307692307691C370,276.2307692307691,370,289.38461538461513,414.40000000000003,289.38461538461513C429.20000000000005,289.38461538461513,429.20000000000005,306.9230769230769,444,306.9230769230769C458.8,306.9230769230769,458.8,306.9230769230769,473.6,306.9230769230769C488.40000000000003,306.9230769230769,488.40000000000003,328.8461538461538,503.20000000000005,328.8461538461538C518,328.8461538461538,518,285,532.8,285C577.2,285,577.2,109.6153846153846,621.6,109.6153846153846C636.4000000000001,109.6153846153846,636.4000000000001,113.99999999999972,651.2,113.99999999999972C666,113.99999999999972,666,8.769230769230864,680.8000000000001,8.769230769230864C695.6,8.769230769230864,695.6,21.92307692307691,710.4,21.92307692307691" stroke="#1f77b4" fill="none"/><text font-family="sans-serif" font-size="10" class="labels" x="680.8000000000001" y="8.769230769230864" dx="0" dy="-4" text-anchor="middle"/></g></g></g><text y="4" x="4" style="font-family: Arial, sans-serif; font-size: 12px; fill: black; font-weight: bold; dominant-baseline: hanging;"/></g><g id="grid"><rect x="0" y="0" width="805" height="600" fill="none" stroke="#ccc"/></g></g></svg>